PathFileType	4	(X/Y/Z)	pose_F01_0-74.trc
DataRate	CameraRate	NumFrames	NumMarkers	Units	OrigDataRate	OrigDataStartFrame	OrigNumFrames
30	30	7	21	m	30	63	74
Frame#	Time	CHip			RHip			RKnee			RAnkle			RBigToe			RSmallToe			RHeel			LHip			LKnee			LAnkle			LBigToe			LSmallToe			LHeel			Neck			Nose			RShoulder			RElbow			RWrist			LShoulder			LElbow			LWrist			
		X1	Y1	Z1	X2	Y2	Z2	X3	Y3	Z3	X4	Y4	Z4	X5	Y5	Z5	X6	Y6	Z6	X7	Y7	Z7	X8	Y8	Z8	X9	Y9	Z9	X10	Y10	Z10	X11	Y11	Z11	X12	Y12	Z12	X13	Y13	Z13	X14	Y14	Z14	X15	Y15	Z15	X16	Y16	Z16	X17	Y17	Z17	X18	Y18	Z18	X19	Y19	Z19	X20	Y20	Z20	X21	Y21	Z21	
63	2.1	-0.2363718623688179	1.8319476182594152	-0.5272313315463064	-0.2505446112121136	1.829087530562358	-0.4585641348924932	-0.23568996868515932	1.721160817828959	-0.5603163035697899	-0.2244888295286436	1.567608203881345	-0.5890640500835063	-0.24264769511504852	1.5460580895465732	-0.6377870476963055	-0.24439237972043457	1.5367095976086949	-0.630823515575567	-0.2186146596009567	1.5813509442153366	-0.5935532268689709	-0.2207072417928756	1.8320534704176428	-0.5872706635787819	-0.22168623180069902	1.7042550476731009	-0.5389958585089941	-0.21627666166240034	1.5941645523900814	-0.616862509547069	-0.23021826253457997	1.5569008211632052	-0.619952453662403	-0.2237964131033241	1.5465285117441194	-0.5920403587554025	-0.21276590769256737	1.5843985001531642	-0.6147382577701647	-0.22819115760136927	1.9864872933412174	-0.5329609025126465	-0.23892441166425235	2.0577870125838964	-0.575344187117668	-0.2501652808298565	1.9825229557625133	-0.43939837197834225	-0.26916873438689215	1.9007165098508878	-0.40647278783615204	-0.2745903373255176	1.9173380514441027	-0.5347448708157262	-0.20353921833503827	1.9902833585544477	-0.6269272998642583	-0.18962277805386799	1.9157784110907539	-0.6619620942965792	-1.393851941617141	1.8454513678282287	0.5588859811125151
64	2.1333333333333333	-0.23663631141126024	1.829118703141755	-0.5269112782526604	-0.24990362683696973	1.826747843512221	-0.46357943418516256	-0.23568996868515932	1.721160817828959	-0.5603163035697899	-0.2244888295286436	1.567608203881345	-0.5890640500835063	-0.24264769511504852	1.5460580895465732	-0.6377870476963055	-0.24439237972043457	1.5367095976086949	-0.630823515575567	-0.2186146596009567	1.5813509442153366	-0.5935532268689709	-0.2189894582327594	1.8299772514267312	-0.5890623358401986	-0.2216163613325183	1.7026671276568055	-0.5388476986826689	-0.21627666166240034	1.5941645523900814	-0.616862509547069	-0.23021826253457997	1.5569008211632052	-0.619952453662403	-0.22434132638695775	1.5465510300614203	-0.5914949251606715	-0.21276590769256737	1.5843985001531642	-0.6147382577701647	-0.22902379137014361	1.9868429193923098	-0.5361545830190377	-0.23974735689485205	2.057997033447434	-0.5786132034763427	-0.2531096493223266	1.9835250106786553	-0.44903923306536897	-0.2694073343032024	1.9060003940877424	-0.42432897991779694	-0.2688468227638516	1.897551186028885	-0.5389001816485813	-0.20131592707743537	1.9890945682352767	-0.6287743001589398	-0.1847361510419829	1.924749953686659	-0.6553860424382544	-0.23133095356947456	1.9119276323159426	-0.656382648466224
65	2.1666666666666665	-0.23506489185953414	1.829086971884851	-0.5326027198283282	-0.24800018910358015	1.8261157475541472	-0.46931433366363196	-0.23568996868515932	1.721160817828959	-0.5603163035697899	-0.2244888295286436	1.567608203881345	-0.5890640500835063	-0.24264769511504852	1.5460580895465732	-0.6377870476963055	-0.24439237972043457	1.5367095976086949	-0.630823515575567	-0.2186146596009567	1.5813509442153366	-0.5935532268689709	-0.21657231151567716	1.8317440239451481	-0.5917151649143971	-0.2215464908643376	1.7010792076405103	-0.5386995388563436	-0.21627666166240034	1.5941645523900814	-0.616862509547069	-0.23021826253457997	1.5569008211632052	-0.619952453662403	-0.22488623967059138	1.546573548378721	-0.5909494915659405	-0.21276590769256737	1.5843985001531642	-0.6147382577701647	-0.2270850306509751	1.9868223324770657	-0.5382940360157937	-0.2378340051373387	2.0565107005580376	-0.5810021365598189	-0.2522450544756529	1.9839520448717065	-0.4544658754265743	-0.2685185325741382	1.9090432759069942	-0.4391094155235266	-0.2689113664872161	1.8715211092970891	-0.5321223648583914	-0.20114634480311838	1.9880618794336495	-0.6284064058047499	-0.1907776421275089	1.9211057410392556	-0.6659008573479215	-0.22907679654065008	1.8816190419042624	-0.6690797313475596
66	2.2	-0.23668782309579814	1.8273784151292012	-0.5355577293326547	-0.2480356639393301	1.824932724780404	-0.4745594215255139	-0.23568996868515932	1.721160817828959	-0.5603163035697899	-0.2244888295286436	1.567608203881345	-0.5890640500835063	-0.24264769511504852	1.5460580895465732	-0.6377870476963055	-0.24439237972043457	1.5367095976086949	-0.630823515575567	-0.2186146596009567	1.5813509442153366	-0.5935532268689709	-0.220179535187943	1.829084413516083	-0.5922291419295993	-0.22205223937306073	1.69875526053805	-0.537859824504647	-0.21627666166240034	1.5941645523900814	-0.616862509547069	-0.23021826253457997	1.5569008211632052	-0.619952453662403	-0.225431152954225	1.5465960666960217	-0.5904040579712094	-0.21276590769256737	1.5843985001531642	-0.6147382577701647	-0.22800637839138588	1.9844326116138036	-0.5410953057621316	-0.2367969595150159	2.056326111594692	-0.586243579762364	-1.7839827168167126	1.8915142887406082	1.234448660762585	-0.266294794647064	1.9062670698002928	-0.45555351824369333	-0.2764655710611751	1.84749274864285	-0.5133952167989962	-0.19920377814613488	1.9868444189359111	-0.6305195424271144	-0.19656011500304205	1.9139750992098759	-0.6639737555733699	-0.21223707658062665	1.8448870712664254	-0.7028901021346802
67	2.2333333333333334	-0.2349342434919695	1.8195988125971165	-0.5314842544222966	-0.24726239426597377	1.817540095260647	-0.4649021262162526	-0.23568996868515932	1.721160817828959	-0.5603163035697899	-0.2244888295286436	1.567608203881345	-0.5890640500835063	-0.24264769511504852	1.5460580895465732	-0.6377870476963055	-0.24439237972043457	1.5367095976086949	-0.630823515575567	-0.2186146596009567	1.5813509442153366	-0.5935532268689709	-0.2163117733979466	1.823876791691965	-0.5909478330692428	-0.22234420648992692	1.7004255053410988	-0.5398039246762248	-0.21627666166240034	1.5941645523900814	-0.616862509547069	-0.23021826253457997	1.5569008211632052	-0.619952453662403	-0.22597606623785865	1.5466185850133225	-0.5898586243764784	-0.21276590769256737	1.5843985001531642	-0.6147382577701647	-0.22892055932310984	1.9848503626373188	-0.5443428380191042	-0.23566864557400455	2.05642204283054	-0.5914881846805777	-0.25347617280949125	1.9823974584410835	-0.4662943765641896	-0.27399056447284253	1.9041074533847455	-0.4691584098664315	-0.29002312529479896	1.838780450140194	-0.48403365690278033	-0.19911204028476237	1.9871729917187801	-0.6306768666808366	-0.19767543433280668	1.9103443904157114	-0.657882974491538	-0.19741467036345156	1.8383224893423273	-0.7125390914297716
68	2.2666666666666666	-0.23598907865623756	1.8292278777261244	-0.5360678567816751	-0.24947516374331824	1.8269853144888086	-0.4814719148766494	-0.23568996868515932	1.721160817828959	-0.5603163035697899	-0.2244888295286436	1.567608203881345	-0.5890640500835063	-0.24264769511504852	1.5460580895465732	-0.6377870476963055	-0.24439237972043457	1.5367095976086949	-0.630823515575567	-0.2186146596009567	1.5813509442153366	-0.5935532268689709	-0.21742819929145457	1.8320972817436538	-0.5950402825248278	-0.22263617360679308	1.7020957501441476	-0.5417480248478027	-0.21627666166240034	1.5941645523900814	-0.616862509547069	-0.23021826253457997	1.5569008211632052	-0.619952453662403	-0.22525561323353557	1.5466229011232016	-0.5905838614053079	-0.21276590769256737	1.5843985001531642	-0.6147382577701647	-0.22788324633667223	1.9849704572826026	-0.5497522216532741	-0.23445409986685234	2.058991457206487	-0.5970380675209639	-0.25424433842793603	1.9824796098733473	-0.46909678787977216	-0.2717324807239157	1.9009688292890567	-0.44757150990110006	-0.28785706356664226	1.8336429056171701	-0.4401584898890012	-0.1969329300526096	1.9863439082395111	-0.6325867931454203	-0.19296171794505035	1.9099000801084638	-0.6618838918100687	-0.18794760752024653	1.837403681421076	-0.6979220012342244
69	2.3	-0.237030570977743	1.8305666337122504	-0.5393744214753122	-0.2506819116545213	1.828521576716189	-0.48500079392486906	-0.23568996868515932	1.721160817828959	-0.5603163035697899	-0.2244888295286436	1.567608203881345	-0.5890640500835063	-0.24264769511504852	1.5460580895465732	-0.6377870476963055	-0.24439237972043457	1.5367095976086949	-0.630823515575567	-0.2186146596009567	1.5813509442153366	-0.5935532268689709	-0.2156708390151955	1.8323486133802178	-0.5971550556473498	-0.22247510740220486	1.7007373580242406	-0.5419351885608487	-0.21627666166240034	1.5941645523900814	-0.616862509547069	-0.23021826253457997	1.5569008211632052	-0.619952453662403	-0.22453516022921252	1.5466272172330804	-0.5913090984341376	-0.21276590769256737	1.5843985001531642	-0.6147382577701647	-0.2279121033495493	1.9847539645090477	-0.5497916649781911	-0.23238460226705146	2.0598712811821045	-0.5993004675062386	-0.2533030131131121	1.9824412860037657	-0.46604966636568995	-0.27064980234687014	1.89778137339836	-0.426397742125748	-0.2881577324955528	1.8221278806401007	-0.406844699153368	-0.19690757497544265	1.9864814522947103	-0.6327084952877563	-0.1868375291251391	1.9106049440790596	-0.6594987746749735	-0.17615566256427503	1.837400184623555	-0.6854744188543979
